<svg width="552" height="552" viewBox="0 0 552 552" fill="none" xmlns="http://www.w3.org/2000/svg">
<path d="M398.318 432.143C398.318 370.943 430 328.915 430 299.425C430 269.935 413.058 208 277.481 208C141.904 208 122 291.32 122 323.757C122 475.648 398.318 540.53 398.318 432.143Z" fill="#26262C"/>
<path d="M375 147C367.833 147 362 140.943 362 133.5C362 126.057 367.833 120 375 120C382.167 120 388 126.057 388 133.5C388 140.943 382.167 147 375 147ZM375 129C373.851 129 372.749 129.474 371.936 130.318C371.123 131.162 370.667 132.307 370.667 133.5C370.667 134.693 371.123 135.838 371.936 136.682C372.749 137.526 373.851 138 375 138C376.149 138 377.251 137.526 378.064 136.682C378.877 135.838 379.333 134.693 379.333 133.5C379.333 132.307 378.877 131.162 378.064 130.318C377.251 129.474 376.149 129 375 129Z" fill="#A4AFC1"/>
<path d="M395.015 285.057C393.703 282.218 391.328 280.296 389.817 277.658C389.028 276.281 388.275 275.065 387.457 273.709C387.442 273.631 387.395 273.479 387.293 273.205C387.01 272.44 386.702 271.685 386.369 270.94C385.15 268.235 383.149 266.001 382.223 263.161C380.395 257.558 378.777 251.704 376.281 246.348C375.015 243.632 373.495 241.105 371.977 238.532C370.342 235.761 369.643 232.62 367.83 229.968C366.374 227.839 365.751 225.509 364.653 223.149C363.293 220.226 361.888 217.391 360.269 214.612C357.185 209.316 355.097 203.424 351.891 198.219C348.846 193.276 346.488 188.073 343.451 183.14C340.092 177.685 337.829 171.532 334.182 166.268C333.218 164.877 332.127 163.569 330.999 162.29C330.721 160.786 330.382 159.287 329.933 157.793C328.907 154.374 327.881 150.898 326.768 147.514C325.831 144.662 326.494 141.925 325.239 138.987C324.386 136.991 321.88 136.008 319.891 135.92C316.995 135.791 314.395 137.11 311.877 138.513C309.706 138.266 307.628 138.213 305.431 138.327C302.38 138.486 299.32 138.97 296.27 139.486C296.085 139.427 295.894 139.383 295.701 139.358C293.453 139.08 291.26 138.287 288.941 138.202C286.619 138.118 284.229 138.466 281.916 138.619C277.678 138.897 273.352 139.328 269.169 140.13C264.453 141.036 259.777 142.37 255.125 143.559C250.476 144.747 245.729 145.425 241.099 146.63C231.77 149.057 222.54 151.573 213.027 153.196L212.602 153.268C210.71 153.505 208.824 153.833 206.948 154.157C201.22 155.149 195.458 155.915 189.759 157.071C184.022 158.235 178.65 160.49 173 161.976C170.522 162.628 167.775 161.949 165.464 163.261C163.585 164.329 161.748 165.751 159.854 166.863C158.763 167.503 157.598 167.777 156.547 168.553C155.428 169.379 154.373 170.306 153.305 171.196C151.222 172.932 149.024 174.615 147.367 176.764C144.193 180.88 141.829 185.24 140.141 190.085C139.269 192.591 137.791 194.822 137.143 197.431C136.767 198.948 136.698 200.597 136.172 202.074C135.748 203.264 135.027 204.343 134.637 205.551C133.956 207.652 133.948 210.068 133.512 212.246C132.971 214.952 133.124 217.853 133.754 220.525C134.404 223.28 135.598 225.868 136.445 228.56C136.813 229.727 137.432 230.801 137.815 231.921C138.234 233.142 138.111 234.507 138.435 235.749C139.174 238.577 141.252 240.315 142.584 242.765C143.445 244.348 144.39 246.152 145.893 247.218C145.982 247.61 146.071 248.002 146.176 248.39C146.179 248.835 146.172 249.283 146.146 249.738C146.012 252.052 145.449 254.23 145.71 256.559C145.932 258.537 145.665 260.624 146.431 262.513C147.173 264.344 148.841 266.475 149.988 268.115C151.437 270.187 153.365 271.357 155.369 272.781C158.051 274.688 161.167 276.012 162.613 279.101C166.367 287.13 167.592 296.1 170.911 304.283C172.46 308.102 173.846 311.954 176.155 315.409C176.669 316.179 177.275 316.974 177.936 317.766C178.14 319.402 178.364 321.019 178.615 322.732C178.558 323.012 178.502 323.291 178.447 323.573C177.726 327.33 177.31 331.154 179.444 334.563C181.257 337.461 183.852 340.448 186.505 342.588C187.231 343.17 188.013 343.676 188.841 344.099C189.556 346.191 190.52 348.212 191.988 349.879C192.266 353.139 192.544 356.374 193.656 359.52C195.449 364.599 196.277 370.062 197.57 375.288C198.784 380.194 200.557 387.069 205.635 389.317C207.35 390.076 209.07 390.094 210.561 389.614C210.943 390.135 211.343 390.642 211.762 391.134C212.948 393.821 215.516 395.951 218.504 396.312C218.927 396.565 219.369 396.794 219.84 396.983C220.956 397.432 222.177 397.684 223.44 397.829C224.086 398.985 225.227 399.881 226.948 400.285C229.025 400.772 231.09 400.654 233.196 400.704C235.184 400.75 236.881 401.17 238.883 400.798C243.377 399.963 248.117 400.429 252.578 399.413C254.612 398.949 256.507 398.099 258.593 397.824C260.094 397.627 261.507 397.669 262.877 397.474C265.14 399.374 269.226 397.89 269.867 395.024C270.567 391.888 270.486 388.649 268.975 385.763C267.787 383.491 264.948 383.156 262.846 384.155C259.361 385.811 255.517 386.639 251.762 387.461C251.055 387.616 250.368 387.931 249.678 388.144C250.047 387.958 248.408 387.952 247.945 387.92C246.187 387.797 244.119 388.197 242.36 388.316C239.192 388.53 236.133 389.8 232.982 389.601C232.815 389.516 232.642 389.443 232.465 389.379C227.804 387.743 224.086 384.619 219.267 383.242C219.243 383.216 219.224 383.192 219.196 383.164C218.373 381.459 217.194 379.699 215.645 379.032C215.459 378.954 215.269 378.89 215.074 378.839C214.795 378.052 214.457 377.301 213.874 376.528C213.779 373.419 213.827 370.387 214.213 367.192C214.758 362.681 215.213 358.22 215.825 353.744C216.466 353.405 217.094 353.042 217.707 352.656C219.89 351.265 221.661 349.445 223.442 347.592C224.276 346.721 225.103 345.843 225.922 344.957C227.469 344.392 228.996 343.675 230.409 343.082C233.828 341.649 237.155 340.027 240.529 338.498C247.337 335.413 254.916 333.082 262.222 331.527C269.798 329.914 277.524 329.392 285.05 327.509C288.435 326.662 291.88 326.167 295.211 325.117C299.919 324.373 304.616 323.531 309.301 322.557C320.162 320.301 331.099 318.195 341.892 315.669C347.212 314.424 352.602 313.607 357.899 312.243C360.227 311.643 362.221 310.654 364.413 309.777C365.924 309.172 367.511 308.813 368.593 307.508C368.709 307.491 368.825 307.473 368.94 307.456C370.549 307.342 372.169 307.057 373.766 306.69C373.868 306.672 373.972 306.657 374.074 306.638C376.999 306.111 379.758 305.449 382.454 304.429C384.941 303.8 387.71 303.006 389.914 301.765C393.692 301.541 397.463 296.859 397.792 293.543C398.086 290.61 396.212 287.651 395.015 285.057Z" fill="#BA3838"/>
<path d="M388.736 347.811C388.145 347.327 387.465 346.738 386.761 346.402C386.496 346.236 386.196 346.134 385.885 346.106C385.483 345.201 385.037 344.316 384.551 343.453C383.357 341.324 381.896 340.651 380.204 339.047C378.203 337.149 374.048 339.012 375.199 341.96C375.586 342.954 375.781 344.008 376.243 344.974C376.752 346.036 377.614 346.649 378.218 347.6C378.768 348.465 378.61 349.495 378.531 350.507C378.082 350.703 377.664 350.965 377.292 351.285C376.274 351.932 375.42 352.677 374.306 353.205C371.926 354.332 369.704 355.565 367.124 356.099C364.369 356.67 361.396 356.957 358.717 357.827C356.384 358.583 354.188 359.747 351.892 360.606C346.837 362.498 341.678 364.347 336.963 366.98C336.747 367.1 336.581 367.264 336.446 367.446C334.852 367.89 333.318 368.557 331.689 368.759C329.993 368.969 328.267 369.118 326.562 369.219C323.128 369.422 319.603 370.851 316.222 371.554C312.393 372.35 308.685 373.157 304.939 374.274C302.834 374.902 300.731 375.476 298.746 376.3C298.437 376.184 298.111 376.119 297.782 376.108C296.693 376.069 295.553 376.372 294.759 377.166C294.726 377.199 293.501 379.221 293.974 378.287C293.752 378.651 293.577 379.041 293.453 379.449C292.844 380.569 293.191 381.948 294.104 382.674C294.66 383.531 294.988 384.471 295.451 385.382C296.196 387.364 298.905 386.945 299.623 385.122C299.661 385.024 299.689 384.926 299.721 384.83C301.028 385.255 302.168 385.242 303.9 384.371C306.938 382.842 310.257 381.898 313.591 381.237C317.35 380.491 324.204 379.673 327.685 376.508C330.51 376.161 333.38 376.11 336.111 375.186C340.549 373.686 345.098 373.193 349.69 372.431C354.32 371.663 358.757 370.288 363.36 369.428C367.702 368.618 371.838 367.453 375.74 365.321C377.189 364.53 378.203 363.485 379.428 362.528C381.418 362.823 383.149 361.299 384.329 359.568C384.383 359.52 384.444 359.476 384.497 359.428C386.079 360.233 388.351 359.459 389.627 358.045C392.38 354.994 391.786 350.31 388.736 347.811Z" fill="#BA3838"/>
<path d="M380.884 296.535C376.265 297.848 371.74 299.206 367.282 300.994C362.745 302.813 358.558 305.704 353.587 303.867C352.064 303.304 350.798 304.03 350.12 305.172C348.658 305.261 347.197 305.344 345.739 305.455C337.515 306.075 329.289 306.617 321.106 307.678C305.063 309.758 289.836 316.157 273.596 316.65C271.471 316.714 270.47 318.415 270.575 320.033C262.304 322.468 253.999 324.896 245.688 327.158C243.982 327.626 242.286 328.127 240.601 328.662C240.679 327.977 240.549 327.327 240.129 326.74C238.623 324.634 235.921 325.001 233.197 326.211C233.228 326.015 233.259 325.817 233.296 325.61C233.23 326.04 233.661 324.727 233.732 324.491C234.246 322.795 232.453 320.694 230.647 321.407C229.503 321.858 228.159 321.733 226.909 321.978C226.721 320.852 226.506 319.73 226.266 318.613C227.458 316.682 226.9 313.607 224.855 312.55C224.495 311.037 224.146 309.524 223.843 308.009C222.666 302.106 220.608 296.318 218.911 290.546C217.548 285.907 215.616 277.835 211.668 272.942C210.309 269.211 208.582 265.632 207.411 261.832C206.108 257.588 204.762 253.356 203.374 249.139C200.687 241.007 197.748 232.961 195.04 224.841C192.452 217.081 189.297 209.613 186.233 202.028C184.661 198.136 182.557 194.534 180.653 190.804C179.103 187.77 177.626 183.994 174.483 182.289C173.851 181.947 173.157 181.855 172.494 181.948C172 180.278 171.548 178.593 170.527 177.151C169.743 176.042 168.492 175.222 167.111 174.771C166.759 174.14 166.382 173.523 165.979 172.923C162.848 168.305 156.566 166.916 152.403 171.236C150.84 172.857 149.778 175.225 148.787 177.209C148.071 178.642 146.142 181.154 145.014 182.996C143.762 185.043 142.896 187.31 141.845 189.464C141.139 190.912 140.408 192.357 139.571 193.735C139.448 193.936 139.244 194.199 139.047 194.468C136.381 195.382 134.265 197.894 134.763 200.866C134.346 201.948 134.22 203.12 134.398 204.266C134.524 205.112 134.722 205.959 134.962 206.808C134.819 207.717 134.684 208.614 134.684 209.455C134.683 212.964 135.495 216.25 136.503 219.582C136.634 220.015 136.764 220.444 136.894 220.87C135.678 222.348 135.165 224.457 136.176 226.674C139.31 233.547 141.068 240.854 143.508 247.959C144.487 250.811 145.058 253.787 145.714 256.693C146.07 258.272 146.711 259.902 147.639 261.298C147.767 262.232 148.138 263.115 148.714 263.86C149.874 265.361 151.949 266.322 153.88 265.993C154.635 268.613 155.942 270.974 158.512 271.85L158.897 272.733C159.064 276.918 161.181 281.162 162.733 284.913C164.816 289.952 166.458 295.131 168.664 300.123C171.217 305.903 173.865 311.629 176.35 317.441C177.172 319.361 178.79 320.242 180.549 320.354C178.37 323.51 178.212 328.074 179.636 331.745C179.499 334.015 180.507 336.101 182.214 338.207C184.228 340.693 186.108 343.338 189.566 343.556C191.144 348.164 192.591 352.803 193.857 357.517C194.793 361.004 195.917 364.438 197.068 367.859C197.608 369.463 198.143 371.068 198.672 372.676C198.956 373.54 199.197 374.467 199.516 375.333C199.884 376.9 200.339 378.424 201.002 379.82C201.241 380.327 201.564 380.79 201.956 381.19C202.82 382.543 204.255 383.313 205.79 383.537C206.356 384.862 207.235 386.231 208.122 387.316C209.193 388.628 210.336 389.234 211.64 389.768C212.452 390.732 213.382 391.856 214.735 392.533C216.282 393.305 217.786 393.427 219.259 394.343C220.901 395.363 222.668 396.137 224.508 396.728C226.185 397.267 227.516 398.061 229.161 398.688C231.296 399.501 233.265 399.317 235.491 399.392C237.326 399.454 239.127 399.975 240.993 399.888C242.717 399.808 244.373 399.509 246.087 399.437C248.193 399.349 249.86 398.213 251.719 397.669C253.939 397.851 255.833 397.704 258.188 396.746C259.874 396.06 261.76 395.052 263.622 394.56C265.979 393.938 268.201 393.098 269.917 391.257C271.068 390.022 272.464 388.029 271.762 386.285C271.293 385.119 270.327 384.456 269.316 384.386C267.381 383.699 265.639 383.718 263.541 383.94C262.35 384.066 261.073 384.194 259.912 384.5C259.308 384.638 258.732 384.857 258.185 385.158C257.268 385.396 257.132 385.543 257.781 385.6C256.913 385.854 255.785 385.98 254.87 386.068C254.348 386.659 253.98 386.749 253.767 386.336C252.934 386.065 252.07 385.903 251.196 385.855C248.782 385.733 246.662 386.841 244.264 386.91C242.381 386.964 240.771 387.461 238.931 387.264C237.334 387.093 235.349 387.278 233.797 387.012C234.194 387.041 232.324 386.329 232.217 386.277C230.018 385.202 227.632 384.863 225.541 383.597C223.872 382.586 222.194 382.079 220.483 381.565C219.971 380.996 219.369 380.349 218.894 380.012C218.866 379.991 218.837 379.976 218.807 379.956C216.864 376.052 215.502 371.879 216.095 367.515C216.963 361.115 218.876 355.073 221.301 349.14C223.771 347.762 226.361 346.516 228.874 345.29C230.26 344.614 231.447 343.702 232.782 342.964C234.508 342.011 236.513 341.519 238.341 340.789C240.286 340.014 242.088 338.936 243.842 337.779C246.146 337.315 248.447 336.835 250.74 336.347C260.204 334.333 269.628 331.905 278.951 329.33C288.107 326.803 297.403 325.049 306.738 323.348C311.069 322.558 315.923 321.97 320.055 320.457C322.339 319.621 324.493 318.684 326.861 318.076C329.011 317.523 331.15 317.104 332.993 315.829C333.106 315.751 333.208 315.666 333.301 315.576C341.284 314.788 349.231 313.956 356.989 312.001C359.241 312.469 361.567 312.518 363.792 311.984C368.508 310.851 372.984 308.766 377.737 307.654C382.533 306.533 387.256 305.372 392.077 304.339C395.377 303.631 400.998 302.701 401.559 298.56C402.657 290.419 384.165 295.603 380.884 296.535ZM383.113 357.097C380.103 356.622 376.845 358.559 374.057 359.559C372.599 360.082 371.435 360.744 370.072 361.409C368.549 362.151 366.732 362.356 365.08 362.815C357.109 365.034 349.025 366.822 340.862 368.173C336.896 368.829 332.956 369.64 329.008 370.395C324.802 371.199 320.861 372.704 316.717 373.658C313.367 374.43 310.35 375.572 307.062 376.549C303.086 377.73 299.615 380.028 295.657 381.254C294.017 381.761 293.822 384.367 295.657 384.776C303.138 386.445 309.84 381.599 317.06 380.617C321.132 380.064 325.007 378.276 329.048 377.438C333.383 376.54 337.735 375.671 342.096 374.911C350.483 373.451 358.702 371.69 366.7 368.69C368.291 368.093 370.1 367.655 371.615 366.893C373.004 366.195 374.1 365.088 375.5 364.36C378.788 362.649 381.99 362.395 383.834 358.865C384.156 358.249 383.924 357.225 383.113 357.097Z" fill="#821E1E"/>
<path d="M323.005 208.047C322.515 206.602 321.969 205.26 320.837 203.813C319.714 202.377 318.66 200.876 317.557 199.423C317.037 196.524 314.968 193.711 312.781 191.711C312.716 191.541 312.643 191.374 312.564 191.21C312.023 190.098 311.296 189.162 310.802 188.045C310.334 186.984 310.053 186.007 309.335 185.07C308.081 183.429 306.902 182.021 306.123 180.041C305.411 178.23 305.088 176.133 304.011 174.468C302.808 172.612 300.806 171.451 298.545 172.173C298.281 172.257 298.043 172.362 297.818 172.479C297.038 172.222 296.188 172.204 295.337 172.462C295.265 172.426 295.135 172.368 294.922 172.268C294.36 172.002 293.316 172.079 292.707 172.093C291.018 172.134 289.411 172.676 287.758 172.937C284.663 173.426 281.736 173.804 278.688 174.588C272.687 176.13 266.448 176.784 260.463 178.543C257.628 179.376 254.75 179.09 251.979 180.215C249.425 181.251 246.931 182.318 244.126 182.252C241.476 182.19 239.208 181.547 236.702 182.853C234.76 183.865 233.347 185.085 232.431 186.889C232.115 186.835 231.807 186.765 231.527 186.637C230.722 186.267 229.981 185.499 229.203 184.969C226.013 182.791 222.334 186.991 224.099 190.072C225.05 191.734 224.978 193.789 225.567 195.588C226.102 197.222 226.758 198.842 227.338 200.463C228.052 202.458 228.782 204.481 229.767 206.363C230.558 207.875 231.731 209.128 232.49 210.654C233.39 212.467 234.189 214.279 235.116 216.018C235.171 216.359 235.233 216.698 235.316 217.029C235.826 219.084 236.4 220.512 236.527 222.648C236.653 224.777 237.144 226.54 238.042 228.477C239.035 230.619 241.858 230.862 243.716 229.965C245.321 229.191 246.926 228.523 248.553 227.895C248.904 228.129 249.304 228.278 249.723 228.329C252.846 228.737 255.244 228.905 258.42 228.55C261.495 228.207 264.403 227.677 267.425 227.034C273.387 225.765 279.31 224.285 285.286 223.056C288.245 222.446 291.178 221.513 294.155 221.041C296.861 220.612 299.336 220.209 301.928 219.233C304.464 218.278 307.071 217.28 309.211 215.781C311.272 215.377 312.939 215.218 315.202 215.308C316.267 215.35 317.32 215.405 318.372 215.175C318.682 215.169 318.973 215.089 319.254 214.972C323.663 215.814 325.8 210.508 323.005 208.047ZM235.598 195.654C235.556 195.561 235.516 195.467 235.473 195.374L235.196 194.783C235.386 194.794 235.578 194.803 235.775 194.807C235.696 195.085 235.637 195.368 235.598 195.654ZM251.819 205.626C251.682 205.847 251.569 206.071 251.466 206.296C251.348 206.021 251.255 205.737 251.189 205.445C251.131 205.159 251.098 204.869 251.089 204.577C251.256 204.573 251.422 204.569 251.587 204.567C251.917 204.563 252.242 204.553 252.57 204.546C252.305 204.892 252.052 205.249 251.819 205.626Z" fill="#EAA9A9"/>
<path d="M325.936 149.378C325.813 149.031 325.668 148.692 325.501 148.363C324.636 145.423 322.839 142.382 322.2 140.17C321.852 138.985 321.177 138.191 320.36 137.729C319.464 135.829 317.328 134.447 315.165 135.19C313.321 135.823 311.764 137.218 309.89 137.701C308.38 138.09 307.646 137.296 306.13 136.868C304.392 136.376 302.111 137.294 301.359 139.013C299.989 139.468 298.84 140.83 299.299 142.469C299.879 144.532 301.254 145.321 302.464 146.914C303.955 148.878 304.764 151.131 306.474 153.006C307.414 154.035 309.218 154.556 310.549 154.083C310.676 154.038 310.791 153.984 310.911 153.934C311.692 154.483 312.452 154.948 313.131 155.284C314.385 155.906 316.003 155.943 317.395 155.467C318.462 156.215 319.541 156.782 320.802 156.734C321.066 157.067 321.339 157.393 321.628 157.708C322.339 158.483 323.898 158.561 324.595 157.708C326.744 155.073 327.088 152.694 325.936 149.378ZM305.429 149.8C306.278 150.809 305.274 151.146 305.429 149.8ZM397.394 293.069C396.764 292.124 395.687 291.26 394.483 291.246C394.346 287.656 392.535 283.795 391.061 280.765C390.214 279.021 388.332 278.404 386.598 278.712C385.748 278.228 384.659 278.123 383.535 278.704C379.266 280.91 377.531 288.195 375.566 292.097C374.079 295.05 371.937 296.875 372.478 300.465C372.723 302.088 373.171 303.418 373.287 305.053C373.404 306.69 374.001 308.035 375.21 309.145C376.493 310.321 378.319 310.602 379.857 309.744C381.141 309.029 381.899 307.94 382.683 306.839C384.807 307.563 387.837 306.942 388.829 304.663C388.937 304.417 389.051 304.172 389.17 303.928C390.311 304.087 391.471 303.844 392.452 303.243C393.102 302.847 393.696 302.319 394.286 301.844L394.337 301.802C394.544 301.647 394.749 301.49 394.942 301.32C397.027 299.487 399.186 295.754 397.394 293.069ZM196.969 223.98C196.009 221.483 194.634 218.991 192.347 217.469C191.92 217.185 189.813 216.065 189.966 216.443C189.251 215.609 188.77 214.63 187.725 213.977C185.431 212.542 182.497 212.601 180.227 214.041C179.134 214.734 178.486 215.502 177.32 215.988C175.893 216.583 174.359 216.736 172.954 217.499C170.644 218.753 168.327 220.286 166.084 221.66C164.06 222.9 162.815 224.727 161.315 226.504C160.823 227.086 160.307 227.688 159.789 228.307C158.288 228.083 156.725 228.515 155.51 229.687C153.771 231.362 153.234 233.863 153.074 236.269C152.024 236.736 151.098 237.537 150.472 238.679C149.448 240.546 149.394 243.127 149.594 245.581C149.469 245.82 149.372 246.072 149.304 246.332C149.018 247.477 148.955 248.613 149.032 249.745C149.009 249.862 148.999 249.981 149.001 250.1L148.995 250.096C148.656 253.374 149.036 257.542 150.443 261.052C150.051 262.645 149.706 264.259 149.429 265.908C148.781 269.75 154.285 271.507 155.429 267.78C155.991 268.006 156.59 268.128 157.195 268.111C157.573 268.101 158.152 268.041 158.513 267.934C160.035 267.484 161.709 266.147 161.975 264.473C162.558 260.796 163.429 256.834 164.855 253.14C164.893 253.084 164.929 253.027 164.968 252.971C167.456 249.369 170.586 246.323 173.735 243.303C176.639 240.518 179.31 237.597 182.832 235.581C186.48 233.493 190.585 232.49 194.288 230.57C196.381 229.486 197.851 226.273 196.969 223.98Z" fill="#FFC60B"/>
<path d="M198.062 227.242C197.528 225.859 196.949 225.306 195.852 224.474C195.364 224.105 194.7 223.944 194.014 223.948C194.057 223.77 194.095 223.588 194.123 223.399C194.473 220.953 193.408 217.911 192.794 215.533C191.964 212.312 188.02 210.702 185.165 212.382C183.099 212.753 181.329 213.455 179.441 214.79C177.202 216.375 174.751 217.44 172.457 218.927C168.013 221.804 162.946 225.405 159.932 229.772C158.23 232.238 156.751 234.788 155.227 237.354C153.847 239.675 151.89 241.591 150.712 244.059C149.465 246.669 149.079 249.389 148.928 252.145C148.735 253.341 148.654 254.533 148.717 255.703C148.128 257.994 147.848 260.301 148.419 262.727C148.738 264.083 149.586 265.076 150.656 265.702C150.584 266.041 150.567 266.39 150.607 266.735C150.51 266.945 150.419 267.16 150.34 267.378C149.715 269.114 150.77 271.096 152.227 272.015C154.989 273.755 157.966 272.202 159.672 269.883C158.769 271.11 159.405 270.264 159.662 269.99C159.977 269.661 160.303 269.342 160.638 269.033C161.622 268.11 162.494 267.2 162.844 265.83C163.407 263.63 162.342 261.706 160.564 260.797C160.608 260.724 160.655 260.648 160.698 260.576C161.014 260.057 161.352 259.551 161.711 259.06C162.045 258.622 162.38 258.186 162.718 257.75C164.76 255.244 167.262 252.918 169.434 250.687C172.673 247.359 176.262 244.251 180.044 241.552C183.248 239.265 188.247 237.306 190.233 233.776C190.55 233.211 190.391 232.391 189.787 232.075C189.051 231.692 188.28 231.384 187.483 231.155C188.109 230.551 188.746 229.977 189.378 229.502C189.394 229.706 189.426 229.907 189.473 230.104C189.441 232.729 192.058 234.532 194.508 233.916C196.621 233.386 198.435 231.292 198.435 229.109C198.433 228.423 198.296 227.85 198.062 227.242ZM180.323 227.642C177.24 230.146 173.904 232.745 171.229 235.811C169.681 236.946 168.219 238.172 166.876 239.387C167.334 238.615 167.811 237.854 168.308 237.107C170.616 233.673 174.447 230.827 178.057 228.509C179.644 227.49 181.326 226.724 182.916 225.762C182.019 226.342 181.153 226.97 180.323 227.642ZM218.124 294.241C217.615 291.308 217.893 288.303 217.291 285.327C216.611 281.969 212.15 280.306 209.351 282.097C205.169 284.772 201.051 288.307 197.517 291.78C194.088 295.152 191.757 298.642 189.036 302.545C187.756 304.381 187.093 306.452 185.927 308.331C184.743 310.242 183.517 312.002 182.606 314.072C181.546 316.478 180.608 318.978 179.873 321.503C179.686 322.143 179.534 322.807 179.391 323.477C178.617 324.336 178.136 325.456 178.157 326.652C178.173 327.578 178.168 328.445 178.069 329.366C177.935 330.62 178.353 331.675 179.078 332.472C179.079 332.5 179.082 332.526 179.082 332.553C179.204 335.946 182.144 337.472 184.731 337.112C185.549 337.604 186.562 337.702 187.472 337.158C190.103 335.58 192.386 332.395 194.259 329.991C195.635 328.224 196.366 326.182 197.582 324.327C198.468 322.973 199.433 321.722 200.317 320.378C203.717 317.243 207.183 314.175 210.508 310.97C212.542 309.01 213.643 308.14 215.786 306.992C218.038 305.784 219.689 303.618 219.737 300.976C219.779 298.625 218.517 296.503 218.124 294.241Z" fill="#CC9809"/>
<path d="M385.168 308.456C384.145 305.655 379.672 307.187 377.94 308.038C376.411 308.79 374.859 309.545 373.354 310.334C371.936 311.076 370.915 312.239 369.739 313.273C369.641 313.288 369.541 313.307 369.444 313.32C370.206 312.39 369.737 311.109 368.638 310.709C366.89 310.072 365.23 310.552 363.433 310.479C361.149 310.385 358.984 310.57 356.706 310.981C352.468 311.748 347.988 312.609 344.037 314.341C342.221 315.138 340.381 315.85 338.555 316.62C336.801 317.359 334.912 317.736 333.203 318.564C331.303 319.484 329.617 320.813 327.719 321.761C326.243 322.498 324.509 322.947 323.06 323.771C321.194 324.113 319.317 324.412 317.462 324.79C317.371 324.808 317.282 324.833 317.191 324.853C314.591 325.044 311.994 325.181 309.412 325.267C296.857 325.682 284.745 329.132 272.42 331.057C266.402 331.997 260.39 333.325 254.388 334.411C249.437 335.306 245.496 337.44 241.172 339.849C238.474 341.353 235.893 342.691 233.691 344.92C231.72 346.915 229.96 349.154 228.207 351.349C227.895 351.42 227.589 351.513 227.291 351.627C223.095 351.029 218.809 355.7 217.732 359.258C216.894 362.026 216.481 365.095 215.89 367.935C215.229 371.111 215.732 373.918 217.777 376.477C221.339 380.938 228.359 385.472 234.007 386.494C236.73 386.986 241.378 386.006 244.384 383.782C249.811 383.799 255.194 384.287 260.58 383.247C266.848 382.038 272.435 379.814 278.327 377.45C279.55 376.955 280.766 376.441 281.974 375.909C282.62 376.063 283.256 376.205 283.911 376.295C284.262 376.662 284.688 376.949 285.159 377.137C289.449 378.874 295.088 377.375 298.994 375.162C300.979 374.037 303.523 373.164 305.212 371.633C305.686 371.202 306.066 370.692 306.388 370.176C307.923 369.984 309.463 369.823 310.984 369.499C312.548 369.166 313.908 368.506 315.258 367.84C318.598 367.314 321.945 366.729 325.334 366.214C330.565 365.421 335.285 363.156 340.305 361.669C341.968 361.176 344.419 360.612 345.678 359.388C346.007 359.067 346.525 358.188 346.773 357.577C348.061 357.05 349.379 356.611 350.771 356.375C353.905 355.845 356.794 354.87 359.86 354.067C361.408 353.662 362.988 353.425 364.548 353.072C365.376 352.907 366.196 352.7 367.004 352.451C367.165 352.427 367.3 352.403 367.42 352.379C369.095 353.322 371.008 353.424 372.693 352.124C374.433 350.782 375.251 347.978 373.909 346.032C373.452 345.369 373.688 344.24 373.575 343.33C373.371 341.69 372.709 340.981 372.03 339.609C371.655 338.853 371.647 337.011 371.863 335.352C372.231 332.528 372.734 329.672 373.604 326.957C374.077 325.481 374.472 323.794 374.959 322.182C375.606 321.711 376.146 321.044 376.498 320.301C377.264 319.877 377.958 319.334 378.554 318.691C379.5 317.672 379.821 316.051 379.472 314.669C379.483 314.664 379.494 314.661 379.506 314.657C381.531 313.818 386.288 311.523 385.168 308.456Z" fill="#E5E0AC"/>
<path d="M353.112 333.862C351.009 332.692 349.327 333.913 347.279 334.595C344.106 335.65 341.042 337.121 337.832 338.054C334.919 338.902 332.374 340.514 329.469 341.286C329.344 340.821 328.934 340.4 328.416 340.373C324.46 340.169 320.114 339.899 316.182 340.25C312.439 340.584 308.752 341.605 305.066 342.295C297.128 343.778 289.414 346.246 281.675 348.513C273.999 350.761 266.064 353.009 258.172 354.323C250.146 355.66 241.983 357.161 234.125 359.295C231.437 360.025 232.59 363.915 235.261 363.416C243.353 361.909 251.675 361.459 259.828 360.329C267.734 359.233 275.745 357.022 283.437 354.908C291.223 352.768 298.96 350.521 306.777 348.503C310.177 347.625 313.503 346.596 316.916 345.804C316.514 347.514 317.961 349.803 320.307 349.427C323.614 348.897 326.744 347.827 330.004 347.183C333.152 346.562 335.936 345.287 339.041 344.572C342.094 343.868 344.991 342.718 347.832 341.404C350.549 340.146 351.574 338.569 353.443 336.426C354.113 335.656 354.084 334.402 353.112 333.862ZM326.707 328.579C326.135 328.71 325.565 328.845 324.994 328.982C325.148 328.092 324.612 327.006 323.553 327.124C315.589 328.012 307.534 327.672 299.564 328.869C290.29 330.261 281.281 332.493 272.154 334.575C269.477 335.185 270.658 339.042 273.269 338.621C283.15 337.028 292.919 335.399 302.904 334.52C303.431 334.475 303.959 334.434 304.487 334.397C300.835 335.31 297.155 336.13 293.412 336.738C281.955 338.602 270.596 340.747 259.179 342.855C255.782 343.482 257.231 348.621 260.605 348.025C272.424 345.938 284.194 343.861 296.048 341.998C302.059 341.054 307.917 339.733 313.683 337.796C318.585 336.149 324.151 334.419 328.106 330.984C329.253 329.986 328.013 328.282 326.707 328.579ZM352.142 346.84C348.639 347.677 345.078 348.613 341.586 349.586C336.366 351.04 330.987 351.857 325.877 353.677C322.9 354.737 319.9 355.726 316.904 356.727C317.063 356.62 317.224 356.514 317.392 356.412C318.175 355.937 317.859 354.672 316.922 354.674C310.282 354.692 303.915 358.062 297.387 358.729C290.063 359.477 282.953 361.392 275.593 361.835C261.785 362.667 247.866 367.797 235.735 374.259C234.284 375.032 235.285 377.31 236.843 376.887C243.556 375.064 250.382 373.3 257.166 371.757C260.743 370.943 264.323 370.132 267.941 369.516C271.532 368.904 275.071 368.985 278.677 368.684C285.602 368.108 292.693 366.447 299.454 364.889C300.186 364.721 300.905 364.492 301.618 364.235C304.772 363.975 307.906 363.592 311.052 362.879C317.098 361.51 323.169 360.222 329.165 358.65C335.064 357.104 341.124 356.275 347.034 354.72C350.378 353.84 354.43 352.903 354.946 348.974C355.143 347.477 353.38 346.544 352.142 346.84ZM360.738 324.874C360.123 325.224 359.465 325.33 358.837 325.648C358.179 325.98 357.506 326.293 356.851 326.629C355.574 327.284 354.321 328.013 353.057 328.698C350.819 329.91 352.85 333.42 355.057 332.119C356.481 331.28 358.058 330.547 359.323 329.475C359.92 328.968 360.549 328.414 361.009 327.777C361.434 327.186 361.618 326.435 361.88 325.752C362.133 325.091 361.285 324.562 360.738 324.874Z" fill="#BFB975"/>
<path d="M294.801 402.834C294.632 402.428 294.433 402.035 294.205 401.66C294.482 399.347 294.043 396.919 293.341 394.533C293.467 394.199 293.546 393.849 293.576 393.493C293.73 391.502 292.815 389.485 292.136 387.658C291.215 385.176 290.375 382.602 289.13 380.262C288.942 379.91 288.673 379.356 288.341 378.714C287.519 375.737 286.557 372.821 284.924 370.146C285.602 367.385 282.886 364.05 279.089 365.156C278.282 365.391 277.508 365.806 276.743 366.153C275.957 366.51 276.588 366.311 275.959 366.366C274.399 366.501 272.878 366.271 271.332 366.678C270.176 366.981 269.049 367.339 267.885 367.629C266.17 368.058 264.817 370.164 265.223 371.943C265.036 372.411 264.929 372.908 264.906 373.412C264.865 374.22 265.132 374.933 265.471 375.646C265.623 375.968 265.895 376.266 266.21 376.519C266.543 378.035 267.06 379.564 267.444 380.952C268.158 383.53 269.869 386.435 270.036 389.106C270.046 389.584 270.135 390.01 270.281 390.389C270.384 392.386 270.69 394.366 271.73 396.01C271.871 396.233 272.034 396.421 272.206 396.592C272.139 397.299 272.066 398.018 272.046 398.797C272.048 399.342 272.184 399.879 272.442 400.36C272.07 401.6 271.335 402.706 270.873 403.933C269.814 406.752 267.68 416.277 274.077 413.931C275.051 413.573 275.641 412.929 276.088 412.237C280.275 412.91 282.907 405.39 284.074 402.636C284.422 401.815 284.828 400.953 285.237 400.074C285.472 400.354 285.698 400.642 285.891 400.959C286.653 402.215 286.92 403.672 287.751 404.88C288.292 405.667 289.002 406.128 289.749 406.309C289.774 406.393 289.805 406.477 289.827 406.562C290.129 407.738 290.279 408.638 291.102 409.586C291.519 410.067 292.428 410.337 293.032 410.096C296.038 408.898 295.883 405.419 294.801 402.834Z" fill="#9E6226"/>
<path d="M401.628 290.284C399.98 288.471 399.253 285.958 398.312 283.733C397.072 280.798 395.579 277.997 394.15 275.153C391.421 269.723 387.915 264.804 385.034 259.468C382.03 253.904 378.805 248.482 375.742 242.953C372.833 237.701 371.053 231.997 367.789 226.941C366.191 224.465 364.629 222.086 363.62 219.306C362.529 216.299 361.376 213.81 359.392 211.279C355.61 206.456 354.573 200.483 351.483 195.29C349.913 192.652 349.302 190.194 348.233 187.373C347.193 184.628 345.398 182.251 343.894 179.754C342.481 177.408 341.745 175.1 340.88 172.533C340.094 170.199 338.555 168.244 337.936 165.859C336.274 159.44 332.249 154.061 330.086 147.782C329.597 146.36 329.541 144.844 328.968 143.448C328.459 142.212 327.555 141.237 326.984 140.039C325.916 137.797 325.487 135.481 323.745 133.598C323.288 133.103 322.441 132.861 321.796 133.082C319.821 133.759 317.586 132.977 315.521 133.16C313.851 133.308 312.199 133.654 310.532 133.832C308.965 134 307.405 134.212 305.839 134.387C303.438 134.655 301.082 134.188 298.677 134.355C294.514 134.646 290.427 135.638 286.273 136.025C281.483 136.471 276.76 136.823 271.998 137.579C262.616 139.068 253.265 140.959 244.012 143.109C240.211 143.992 236.598 145.428 232.715 145.913C227.933 146.51 223.208 147.569 218.477 148.479C209.815 150.143 200.989 151.166 192.444 153.395C188.554 154.41 184.712 155.502 180.768 156.302C176.459 157.176 172.037 157.139 167.937 158.822C160.872 161.723 153.526 165.863 147.982 171.149C142.465 176.41 137.052 182.093 134.852 189.531C133.567 193.875 131.524 197.882 130.389 202.328C129.145 207.198 128.78 211.343 129.121 216.328C129.241 218.081 129.092 219.81 129.162 221.553C129.194 222.366 129.314 223.138 129.681 223.871C130.057 224.623 130.311 225.038 130.509 225.747C131.18 228.149 132.185 230.278 133.699 232.085C133.709 232.13 133.716 232.177 133.728 232.222C134.543 235.371 135.615 237.627 137.173 240.465C139.855 245.348 142.37 251.045 141.928 256.641C141.474 262.379 141.825 267.686 147.396 270.734C149.606 271.943 151.328 273.635 153.666 274.726C154.937 275.32 156.586 275.879 157.566 276.95C158.695 278.184 159.016 280.233 159.374 281.819C160.895 288.572 162.319 294.97 165.273 301.266C166.52 303.925 167.518 306.68 168.721 309.358C170.162 312.566 172.14 315.444 173.756 318.556C174.627 320.232 175.899 322.018 175.621 323.834C175.196 326.605 174.2 328.547 174.792 331.473C175.918 337.042 179.506 341.009 183.74 344.441C186.75 346.88 187.461 350.418 188.586 353.965C189.7 357.477 190.495 361.045 191.616 364.552C192.652 367.795 193.885 370.942 194.928 374.178C195.809 376.912 196.801 379.431 198.554 381.617C198.933 383.08 199.44 384.503 200.255 385.882C202.078 388.97 204.637 392.021 207.377 394.33C209.913 396.466 212.968 397.206 215.671 398.984C217.019 399.871 218.104 401.031 219.547 401.792C221.201 402.664 223.041 403.32 224.787 403.975C231.872 406.632 239.462 405.229 246.68 403.901C250.239 403.246 253.887 402.528 257.335 401.413C259.22 400.802 261.027 399.974 262.916 399.378C264.57 398.857 266.266 398.746 267.758 397.824C268.025 397.663 268.246 397.437 268.401 397.167C268.556 396.896 268.639 396.591 268.643 396.279C268.892 399.364 268.699 402.569 268.13 405.419C267.489 408.623 265.224 412.587 266.404 415.879C268.638 422.108 275.17 416.09 277.806 413.67C280.257 411.418 282.729 409.076 284.009 405.945C284.63 404.426 285.054 402.794 285.345 401.139C287.69 406.071 291.774 412.541 295.887 410.236C299.105 408.433 298.231 402.618 297.847 399.724C297.468 396.836 297.025 393.957 296.518 391.089C297.504 390.9 298.524 390.801 299.472 390.547C301.828 389.915 304.083 388.891 306.429 388.207C311.425 386.751 316.495 385.529 321.507 384.122C331.31 381.37 340.916 378.236 350.793 375.725C361.031 373.122 371.4 370.765 381.514 367.721C385.179 366.619 389.387 365.395 391.984 362.386C394.183 359.839 396.534 355.714 395.987 352.259C395.446 348.833 392.813 345.408 390.094 343.358C388.312 342.015 385.48 340.923 383.387 339.381C383.359 339.144 383.259 338.921 383.1 338.743C383.002 338.442 382.844 338.164 382.63 337.893C382.513 337.744 382.454 337.643 382.236 337.303C381.874 336.741 381.522 336.185 381.196 335.602C381.069 335.278 380.886 334.976 380.615 334.627C380.44 334.4 380.262 334.175 380.081 333.953C379.546 333.3 378.615 333.133 377.802 333.321C377.881 332.026 378.068 330.703 378.364 329.281C379.846 322.141 383.582 315.788 387.762 309.856C391.215 309.03 394.523 307.835 397.226 305.349C400.562 302.28 402.981 298.121 402.429 293.522C402.681 292.434 402.491 291.233 401.628 290.284ZM300.847 140.795C304.788 140.723 308.484 140.201 312.371 139.522C314.469 139.155 316.431 138.357 318.548 138.093C319.613 137.959 320.581 137.805 321.53 137.512C322.281 139.208 322.349 141.325 323.022 142.997C324.088 145.639 324.006 148.302 324.871 151.028C325.483 152.958 326.257 154.822 327.066 156.669C323.851 156.076 320.608 155.903 317.415 155.01C314.112 154.085 311.473 152.272 308.508 150.64C305.534 149.001 302.646 147.782 300.861 144.707C300.125 143.439 299.553 142.146 298.903 140.91C299.549 140.848 300.198 140.809 300.847 140.795ZM188.146 340.916C187.381 340.308 186.573 339.742 185.754 339.164C183.026 337.238 181.105 334.794 180.116 331.548C179.026 327.975 180.925 327.428 182.385 324.779C183.064 323.549 183.162 322.334 182.952 321.14C184.787 316.882 186.652 312.628 188.584 308.402C189.422 306.569 189.979 304.545 191.055 302.842C192.221 300.994 193.8 299.356 195.147 297.635C197.783 294.269 201.184 291.821 203.887 288.534C204.391 287.923 204.127 286.745 203.173 286.81C199.242 287.079 195.182 291.183 192.763 294.021C191.272 295.772 189.766 297.523 188.326 299.317C186.744 301.287 185.997 303.319 184.946 305.581C183.428 308.841 181.963 312.115 180.501 315.395C177.923 310.542 175.042 305.899 172.651 300.923C171.329 298.172 169.657 295.633 168.222 292.946C166.352 289.447 165.364 285.639 164.517 281.787C164.176 280.238 163.869 278.608 163.36 277.065C163.929 276.613 163.965 275.662 163.561 275.034C164.028 273.445 164.703 271.971 165.118 270.35C165.635 268.323 165.753 266.23 166.533 264.272C167.199 262.597 167.667 260.962 168.272 259.283C169 257.265 170.732 254.991 171.82 253.068C174.232 248.803 178.365 245.217 181.879 241.869C185.346 238.568 189.605 236.182 193.021 232.908C193.737 232.221 193.175 231.031 192.233 231.006C186.893 230.866 182.103 235.034 178.313 238.303C174.292 241.77 169.309 245.361 166.637 250.038C165.855 251.407 165.298 252.719 164.396 254.032C163.691 255.059 163.061 255.983 162.68 257.191C162.086 259.075 161.527 260.844 160.832 262.705C159.876 265.263 159.889 268.001 159.276 270.625C159.223 270.848 159.18 271.061 159.137 271.274C158.086 270.495 156.96 269.801 155.885 269.049C154.729 268.239 154.097 267.238 153.122 266.281C152.289 265.464 150.944 265.067 150.214 264.19C148.543 262.181 149.441 258.531 149.627 256.196C149.778 254.294 149.707 252.388 149.15 250.627C150.333 248.614 151.082 246.341 152.28 244.061C155.067 238.762 158.393 233.284 161.946 228.457C165.203 224.033 171.124 221.009 176.046 218.782C178.501 217.672 183.213 216.234 182.717 212.83C182.537 211.603 181.001 211.581 180.249 212.179C178.89 213.256 176.812 213.332 175.203 213.868C172.958 214.616 170.636 215.536 168.636 216.81C164.426 219.494 160.513 221.775 157.535 225.878C154.226 230.439 151.206 235.526 148.68 240.551C147.771 242.36 147.019 244.151 146.52 246.096C145.086 243.84 143.982 241.468 142.577 239.097C141.663 237.558 140.479 236.213 139.561 234.683C139.4 234.415 139.261 234.139 139.119 233.864C139.397 233.217 139.373 232.423 138.83 231.815C136.116 228.782 137.125 225.333 136.075 221.785C135.885 221.142 135.794 221.048 135.755 221.152L135.734 220.759C135.705 220.284 135.828 219.737 135.842 219.265C135.906 217.237 135.643 215.201 135.582 213.175C135.35 205.369 139.375 198.61 141.46 191.354C143.461 184.389 149.59 178.454 155.022 173.872C157.857 171.48 161.233 169.967 164.434 168.145C165.169 167.726 165.886 167.322 166.601 166.932C166.739 171.028 169.474 175.578 171.18 178.99C172.408 181.446 173.942 183.675 175.295 186.056C176.777 188.664 177.657 191.575 178.904 194.299C181.475 199.914 185.281 204.831 188.113 210.303C189.364 212.723 190.246 215.19 191.835 217.423C193.676 220.01 195.298 222.181 196.272 225.268C200.323 238.11 204.031 251.139 207.616 264.122C209.41 270.619 211.379 277.063 213.281 283.527C215.027 289.462 216.384 295.653 218.513 301.46C218.9 302.517 219.385 303.508 219.91 304.475C214.978 305.402 211.322 306.489 207.608 310.354C203.877 314.237 200.684 318.472 197.863 323.054C196.349 325.514 195.019 328.107 193.457 330.53C192.237 332.422 190.821 334.131 189.895 336.203C189.133 337.895 188.558 339.35 188.146 340.916ZM267.758 394.65C265.214 393.024 262.118 394.301 259.504 395.227C256.228 396.386 252.986 397.324 249.554 397.912C242.79 399.071 234.666 400.547 227.951 398.631C224.772 397.724 222.116 396.428 219.455 394.521C216.853 392.656 213.626 392.099 211.097 390.098C208.665 388.173 206.009 385.77 204.07 383.215C205.656 382.271 206.599 380.348 205.264 378.52C203.561 376.191 202.955 373.415 201.983 370.743C200.922 367.823 199.795 364.952 198.752 362.023C197.643 358.909 197.066 355.621 195.804 352.562C194.567 349.565 192.844 346.643 191.047 343.947C190.978 343.842 190.901 343.747 190.829 343.647C191.701 341.684 192.467 339.645 193.485 337.715C194.613 335.578 196.225 333.759 197.467 331.695C198.687 329.663 199.813 327.586 201.07 325.572C203.853 321.111 206.949 317.125 210.533 313.281C213.496 310.101 217.357 308.472 220.621 305.745C221.394 307.077 222.205 308.389 222.91 309.786C224.438 312.815 225.352 316.093 226.781 319.166C228.173 322.157 229.715 325.177 231.349 328.041C232.749 330.493 234.796 331.944 236.537 334.027C238 335.777 240.232 333.812 239.958 332.036C239.654 330.071 238.274 328.59 237.243 326.955C235.64 324.412 234.298 321.716 232.891 319.06C230.235 314.046 228.731 308.59 225.665 303.777C222.379 298.615 221.41 292.163 219.512 286.402C217.531 280.383 215.375 274.421 213.328 268.424C208.997 255.73 204.613 242.965 201.012 230.041C200.28 227.416 199.734 224.735 198.72 222.197C197.746 219.761 196.208 217.852 194.702 215.743C191.533 211.302 189.531 205.816 186.759 201.074C184.89 197.876 183.078 194.669 181.706 191.221C180.61 188.464 179.598 185.751 178.014 183.229C176.304 180.502 174.715 177.819 173.235 174.955C172.497 173.524 171.826 172.024 171.027 170.627C170.149 169.093 168.677 167.819 168.196 166.093C170.429 164.985 172.703 164.15 175.377 163.93C183.402 163.273 191.023 160.367 198.862 158.769C206.991 157.111 215.262 156.124 223.43 154.661C227.241 153.979 231.022 153.348 234.862 152.866C239.051 152.34 243.032 150.698 247.151 149.792C255.615 147.93 264.09 146.192 272.633 144.729C277.577 143.883 282.498 143.424 287.461 142.785C290.431 142.402 293.426 141.682 296.423 141.219C297.076 143.61 297.374 146.128 298.854 148.224C300.87 151.079 304.118 152.462 307.024 154.19C313.324 157.935 320.359 161.356 327.966 160.189C328.166 160.16 328.358 160.089 328.528 159.979C329.627 162.492 330.651 165.024 331.278 167.697C331.816 169.992 333.127 171.804 333.958 173.963C334.939 176.511 335.414 179.106 336.675 181.576C337.929 184.033 339.634 186.255 340.829 188.738C342.153 191.489 342.397 194.5 343.914 197.229C345.394 199.888 346.672 202.362 347.711 205.232C348.76 208.134 349.918 211.068 351.659 213.634C353.442 216.264 355.167 218.294 356.229 221.345C357.181 224.08 358.407 226.568 359.951 229.019C361.505 231.485 363.157 233.867 364.262 236.579C365.48 239.565 366.664 242.513 368.167 245.375C371.112 250.984 374.459 256.366 377.399 261.98C379.734 266.439 382.461 270.647 384.962 274.997C384.815 275.081 384.669 275.168 384.527 275.268C383.094 276.29 382.037 277.935 380.801 279.183C379.594 280.402 378.353 281.621 377.351 283.021C376.184 284.655 375.842 286.308 375.054 288.105C374.456 289.468 373.3 290.472 372.662 291.83C371.917 293.419 371.509 295.269 371.127 296.966C370.543 299.553 369.545 303.153 370.329 305.894C369.238 306.241 368.147 306.589 367.041 306.89C364.311 307.635 361.672 307.676 358.886 307.893C353.547 308.308 348.157 309.984 343.124 311.721C337.944 313.509 332.809 314.262 327.528 315.559C324.978 316.186 322.477 316.997 320.013 317.903C318.696 318.388 317.392 319.02 316.039 319.4C314.473 319.84 312.838 319.836 311.25 320.176C308.979 320.663 306.971 321.942 304.756 322.638C302.202 323.435 299.603 324.086 296.974 324.585C291.703 325.594 286.269 326.36 280.957 327.176C278.105 327.614 275.262 327.83 272.445 328.508C269.576 329.198 266.798 330.21 263.934 330.929C261.703 331.489 259.535 331.961 257.43 332.767C256.637 332.71 255.842 332.692 255.038 332.801C249.737 333.516 244.269 336.151 239.264 337.997C230.487 341.233 221.093 345.82 215.921 354.103C213.506 357.97 213.212 362.449 213.1 366.875C212.977 371.72 213.015 375.948 215.242 380.368C219.029 387.879 229.25 390.25 236.99 390.145C237.466 390.139 237.848 389.982 238.14 389.742C240.315 389.85 242.499 389.922 244.601 389.781C248.552 389.515 252.351 388.366 256.159 387.364C258.278 386.806 260.409 386.282 262.588 386.029C264.026 385.863 264.983 385.801 265.767 384.828C266.49 386.986 267.211 389.144 267.811 391.333C268.206 392.776 268.46 394.326 268.607 395.909C268.56 395.652 268.46 395.408 268.314 395.191C268.168 394.974 267.979 394.79 267.758 394.65ZM293.967 406.481C293.89 406.426 293.675 406.376 293.366 406.167C292.373 405.494 291.504 404.48 290.759 403.546C288.792 401.081 287.266 398.612 285.701 395.891C284.978 394.635 283.365 395.557 283.536 396.803C284.482 403.673 278.185 407.902 273.255 411.377C272.889 411.636 272.324 411.936 271.777 412.255C271.882 411.669 271.967 411.066 272.025 410.836C272.836 407.61 273.304 404.579 273.377 401.255C273.452 397.89 273.401 394.522 272.528 391.25C271.573 387.672 269.966 384.289 268.819 380.77C267.849 377.793 266.822 374.286 264.957 371.725C264.766 371.463 264.559 371.218 264.343 370.98C265.722 370.659 267.069 370.215 268.368 369.654C271.225 368.426 274.082 367.686 277.015 366.956C277.056 366.951 277.097 366.943 277.138 366.938C279.024 366.698 280.905 366.436 282.784 366.161C283.393 366.909 283.621 368.562 284.02 369.422C285.857 373.38 288.031 377.098 289.606 381.193C290.369 383.177 290.877 385.18 291.283 387.209C290.736 387.532 290.212 387.894 289.717 388.292C287.36 390.178 289.78 393.252 292.266 392.878L292.281 392.972C292.878 396.553 294.027 400.063 294.102 403.72C294.111 404.163 294.2 405.791 293.967 406.481ZM382.516 348.7C382.619 347.183 381.861 345.62 379.955 345.027C380.259 345.121 379.559 344.215 379.336 343.603C378.95 342.548 378.756 341.416 378.487 340.328C378.404 339.994 378.339 339.671 378.271 339.347C378.387 339.461 378.5 339.58 378.624 339.687C379.256 340.238 380.074 340.766 380.901 340.921C381.878 342.419 383.25 343.702 384.663 344.835C385.983 345.892 387.541 346.799 388.58 348.167C390.468 350.655 390.656 352.917 389.029 355.485C387.659 357.647 386.666 358.816 384.297 359.878C381.6 361.088 378.788 362.095 375.981 363.015C369.946 364.994 363.804 366.669 357.642 368.198C351.682 369.678 345.715 371.168 339.772 372.711C333.921 374.23 328.266 376.434 322.448 378.08C316.449 379.777 310.36 381.203 304.39 382.991C301.617 383.821 298.983 384.994 296.133 385.532C295.892 385.578 295.662 385.627 295.431 385.677C295.347 385.302 295.273 384.918 295.185 384.547C294.685 382.434 293.975 380.357 293.145 378.318C294.165 378.16 295.248 378.035 295.517 377.971C297.133 377.583 298.794 378.064 300.327 377.642C303.701 376.711 307.077 375.77 310.555 375.001C319.187 373.094 327.799 371.024 336.207 368.275C344.471 365.574 352.527 362.021 360.871 359.619C367.448 357.726 373.928 355.669 380.07 352.81C380.895 352.921 381.752 352.603 382.254 351.673L382.521 351.177C383.012 350.275 382.935 349.385 382.516 348.7ZM371.611 332.151C370.87 336.229 371.446 340.173 372.204 344.203C372.555 346.068 373.171 347.99 374.266 349.494C373.051 350.087 371.825 350.679 370.47 351.095C366.595 352.285 362.733 353.51 358.849 354.668C350.334 357.207 342.1 360.827 333.649 363.607C325.442 366.306 317.045 368.391 308.629 370.319C306.552 370.794 304.459 371.204 302.386 371.696C301.672 371.865 300.827 371.966 300.162 372.286C299.839 372.441 299.183 373.078 298.901 373.176C297.725 373.581 296.548 373.324 295.311 373.904C294.176 374.435 293.094 375.073 292.003 375.688C290.92 373.323 289.723 371.009 288.542 368.757C288.053 367.827 287.662 366.636 287.196 365.478C287.784 365.385 288.372 365.3 288.96 365.204C305.007 362.576 320.886 359.325 336.459 354.61C337.436 354.315 337.253 352.85 336.218 352.829C332.661 352.758 329.183 353.84 325.761 354.692C322.023 355.624 318.246 356.329 314.52 357.323C306.503 359.464 298.313 360.736 290.136 362.113C288.68 362.359 287.226 362.592 285.772 362.823C285.108 361.982 284.259 361.375 283.073 361.249C281.298 361.06 279.472 361.932 277.782 362.337C275.115 362.975 272.463 363.454 269.876 364.403C268.062 365.068 266.32 365.96 264.485 366.568C263.204 366.821 261.922 367.07 260.639 367.315C260.203 367.358 259.786 367.401 259.386 367.473C258.989 367.258 258.594 367.046 258.206 366.836C257.573 366.491 256.881 367.326 257.422 367.853C257.452 367.883 257.484 367.912 257.516 367.941C256.761 368.099 256.008 368.258 255.257 368.433C253.192 368.917 251.105 369.362 249.051 369.885C247.141 370.372 245.345 371.417 243.38 371.656C242.576 371.754 242.522 372.956 243.38 372.952C246.711 372.934 250.175 372.095 253.447 371.486C254.328 371.322 255.208 371.155 256.089 370.989C256.479 372.107 257.716 372.94 258.874 372.078C259.466 371.638 260.2 371.465 260.97 371.375C261.166 371.634 261.352 371.897 261.511 372.176C262.682 374.218 263.271 376.799 263.918 379.038C264.094 379.65 264.281 380.258 264.471 380.865C264.227 380.781 263.968 380.749 263.711 380.77C257.238 381.404 251.27 384.292 244.837 384.947C241.847 385.252 238.832 384.941 235.839 385.21C235.467 385.243 234.989 385.33 234.46 385.434C231.595 384.404 228.738 383.281 225.945 382.142C223.145 381 221.423 379.27 220.181 376.516C218.543 372.88 219.008 368.724 219.096 364.832C219.188 360.743 220.235 357.492 223.091 354.529C225.749 351.774 228.483 349.027 231.783 347.038C235.588 344.743 239.943 343.283 244.07 341.681C247.921 340.185 251.726 338.44 255.627 337.093C257.463 336.46 259.41 336.293 261.235 335.674C261.684 335.521 262.116 335.297 262.542 335.045C263.958 334.822 265.374 334.608 266.775 334.314C269.248 333.794 271.634 332.942 274.12 332.468C276.975 331.924 279.877 331.861 282.747 331.436C288.274 330.616 293.904 330.061 299.389 329.012C304.673 328.003 309.676 325.66 314.969 325.162C320.658 324.628 326.007 321.888 331.741 321.179C337.56 320.46 342.81 319.033 348.459 317.503C351.108 316.786 353.83 316.287 356.535 315.833C359.236 315.379 361.965 315.629 364.682 315.268C370.283 314.526 375.644 312.367 381.181 311.21C381.732 311.095 382.287 310.986 382.843 310.877C376.874 316.533 373.134 323.783 371.611 332.151ZM394.474 296.628C393.157 298.401 391.84 300.163 389.754 301.082C385.13 303.117 379.467 303.437 374.563 304.649C374.928 302.512 374.691 300.086 375.084 298.057C375.379 296.537 375.645 294.791 376.296 293.37C376.849 292.164 377.796 291.217 378.326 289.993C378.955 288.543 379.084 286.964 379.851 285.557C380.694 284.012 381.957 282.792 383.077 281.459C384.112 280.228 384.866 278.815 385.859 277.57C385.964 277.439 386.076 277.314 386.19 277.192C386.641 278.017 387.083 278.85 387.507 279.693C390.097 284.849 391.722 291.003 396.098 294.873C395.522 295.431 394.947 295.991 394.474 296.628Z" fill="black"/>
<path d="M242.062 232.702C243.793 232.232 245.154 232.245 246.914 232.147C248.408 232.064 249.847 231.464 251.324 231.253C253.243 230.98 255.195 231.163 257.125 230.915C265.132 229.882 273.12 228.44 281.078 227.083C288.885 225.751 296.618 224.082 304.259 221.998C308.167 220.932 312.081 220.02 316.066 219.292C318.088 218.922 320.109 218.393 322.169 218.333C324.093 218.276 325.839 218.48 327.761 218.196C328.5 218.087 329.099 217.33 329.295 216.662C330.319 213.176 327.759 209.901 325.895 207.206C323.066 203.113 321.92 198.25 319.681 193.843C317.31 189.174 313.314 185.393 310.722 180.8C308.726 177.263 307.525 172.011 304.307 169.376C303.593 168.792 302.705 168.592 301.866 169.061C300.573 169.785 298.939 169.104 297.586 169.074C296.343 169.046 295.095 169.27 293.868 169.446C290.777 169.887 287.828 170.734 284.801 171.465C278.483 172.99 271.99 173.482 265.612 174.67C252.366 177.14 239.516 182.578 226.049 183.393C225.683 183.415 225.427 183.579 225.273 183.801C225.065 183.357 224.661 182.996 224.06 182.926C222.982 182.8 222.843 182.839 221.786 183.07C221.2 183.197 220.673 183.868 220.715 184.476C220.851 186.415 221.508 187.874 222.339 189.619C223.456 191.963 223.592 194.35 224.481 196.739C225.123 198.463 226.205 199.697 226.565 201.549C226.917 203.362 227.143 205.274 227.785 207.015C228.385 208.638 229.472 209.884 230.372 211.333C231.733 213.525 232.177 216.083 233.144 218.449C233.917 220.339 235.053 222.071 235.771 223.98C236.671 226.371 236.773 229.02 237.352 231.496C237.49 232.082 238.019 232.601 238.601 232.744C239.85 233.051 240.812 233.041 242.062 232.702ZM237.463 218.967C236.465 216.864 235.892 214.624 234.992 212.485C234.152 210.49 232.849 209.06 231.696 207.278C229.756 204.281 230.1 200.42 228.357 197.333C227.206 195.296 226.902 193.693 226.281 191.5C225.726 189.54 224.459 187.776 223.898 185.832L224.06 185.826C224.765 185.903 225.197 185.535 225.364 185.037C225.522 185.209 225.75 185.333 226.049 185.36C229.085 185.638 231.985 185.957 235.015 185.479C238.6 184.914 242.164 184.143 245.739 183.514C253.02 182.232 260.17 180.307 267.466 179.115C274.27 178.003 281.156 177.375 287.843 175.633C290.961 174.821 294.351 173.744 297.587 173.644C299.519 173.584 301.048 173.796 302.583 173.226C303.496 174.41 304.103 176.428 304.675 177.505C305.684 179.408 306.431 181.448 307.524 183.306C309.826 187.223 312.917 190.61 315.265 194.451C317.666 198.379 318.504 203.049 320.662 207.088C321.61 208.861 324.493 211.688 325.05 214.066C323.704 214.074 322.348 213.915 321.003 214.036C319.353 214.184 317.742 214.569 316.119 214.883C312.341 215.615 308.597 216.369 304.88 217.382C297.449 219.407 290.007 221.232 282.426 222.621C274.986 223.985 267.509 225.178 260.04 226.364C256.372 226.947 252.536 226.689 248.948 227.606C247.224 228.046 245.706 227.971 243.976 228.175C242.871 228.306 241.706 229.062 240.557 229.274C240.262 227.51 240.102 225.712 239.623 223.996C239.127 222.222 238.248 220.622 237.463 218.967ZM325.903 345.151C324.334 345.874 322.614 345.896 320.946 346.236C319.268 346.578 317.624 347.074 315.946 347.42C312.369 348.157 308.824 348.543 305.314 349.606C301.918 350.635 298.408 350.98 294.939 351.67C291.064 352.442 287.243 353.326 283.324 353.877C279.956 354.35 276.968 355.433 273.687 356.235C270.359 357.05 266.924 357.348 263.558 357.96C256.195 359.298 248.536 360.132 241.318 362.105C240.994 362.194 241.132 362.669 241.456 362.605C248.845 361.143 256.543 360.697 264.015 359.617C267.745 359.078 271.554 358.819 275.205 357.831C278.747 356.872 282.073 356.091 285.728 355.571C293.233 354.503 300.763 352.89 308.076 350.959C311.572 350.035 315.212 349.759 318.733 348.92C321.309 348.307 324.769 348.134 326.781 346.289C327.428 345.698 326.607 344.826 325.903 345.151ZM353.907 328.321C354.413 327.831 353.743 326.909 353.138 327.324C351.684 328.321 348.762 328.688 347.094 329.263C345.256 329.896 343.391 330.446 341.517 330.954C337.382 332.075 333.214 333.069 329.019 333.936C324.681 334.832 320.468 335.974 316.096 336.772C311.301 337.647 306.541 338.711 301.757 339.643C292.326 341.481 282.853 343.11 273.475 345.215C268.908 346.241 264.376 347.46 259.772 348.309C256.086 348.987 251.688 348.784 248.31 350.445C247.452 350.867 248.203 352.113 249.055 351.72C251.176 350.743 254.597 350.753 256.887 350.472C258.854 350.231 260.808 349.946 262.757 349.58C267.385 348.711 271.951 347.516 276.561 346.554C286.176 344.549 295.875 342.982 305.516 341.106C310.069 340.221 314.606 339.245 319.189 338.519C323.505 337.835 327.654 336.597 331.939 335.748C336.115 334.921 340.296 333.751 344.374 332.529C347.334 331.641 351.617 330.54 353.907 328.321ZM301.256 335.179C310.289 332.561 319.418 330.544 328.561 328.38C332.938 327.344 337.288 326.252 341.725 325.49C346.534 324.664 351.449 324.579 356.235 323.68C356.676 323.597 356.684 322.858 356.235 322.781C347.498 321.303 337.676 324.301 329.26 326.397C319.75 328.766 310.264 330.954 300.884 333.829C300.026 334.093 300.387 335.43 301.256 335.179ZM369.099 336.687C367.16 337.781 363.78 337.673 361.571 338.138C358.669 338.75 355.786 339.481 352.889 340.122C347.17 341.385 341.393 342.838 335.553 343.454C334.292 343.587 334.272 345.576 335.553 345.449C341.822 344.826 347.926 343.292 354.079 342.026C357.358 341.351 360.59 340.522 363.84 339.725C365.75 339.257 368.397 339.093 369.759 337.541C370.155 337.088 369.656 336.371 369.099 336.687ZM240.46 348.449C247.34 345.214 255.428 344.315 262.661 341.968C265.925 340.909 269.207 340.026 272.587 339.424C275.959 338.823 279.059 337.248 282.502 336.999C283.029 336.961 283.236 336.101 282.637 336.007C279.637 335.537 276.952 336.707 274.063 337.356C270.24 338.213 266.468 338.862 262.712 340.043C255.172 342.413 246.773 343.624 239.663 347.087C238.745 347.532 239.548 348.878 240.46 348.449ZM229.456 362.774C231.047 362.508 232.589 361.695 234.151 361.279C235.673 360.873 237.235 360.575 238.723 360.045C240.284 359.49 241.703 358.532 243.377 358.323C243.991 358.246 244.28 357.267 243.539 357.127C241.065 356.661 238.67 358.258 236.382 358.995C232.76 360.161 229.294 361.933 225.472 362.11C225.152 362.126 225.16 362.574 225.472 362.603C226.811 362.726 228.117 362.999 229.456 362.774ZM250.672 367.664C246.776 367.705 242.977 368.903 239.242 369.899C235.054 371.016 230.76 371.683 226.605 372.931C225.714 373.198 226.088 374.581 226.992 374.329C234.798 372.152 242.933 370.735 250.847 368.961C251.579 368.797 251.411 367.656 250.672 367.664ZM240.993 379.909C243.975 378.992 247.112 378.163 250.198 377.703C251.947 377.443 253.817 377.459 255.062 376.03C255.472 375.561 254.938 374.724 254.356 375.116C252.813 376.151 250.586 375.66 248.828 375.965C246.025 376.451 243.182 377.151 240.456 377.961C239.212 378.33 239.746 380.292 240.993 379.909ZM145.022 209.09C144.783 207.727 142.856 208.168 142.773 209.401L142.745 209.398C142.596 210.638 141.862 211.952 141.501 213.155C141.041 214.687 140.657 216.238 140.156 217.759C139.42 220.001 138.34 222.381 139.967 224.382C140.266 224.75 140.906 224.694 141.212 224.382C143.033 222.535 143.559 218.759 144.075 216.273C144.548 214.001 145.427 211.401 145.022 209.09ZM147.352 213.777C146.112 216.208 144.884 218.614 143.681 221.061C142.863 222.728 141.159 225.092 142.494 226.851C142.79 227.241 143.22 227.397 143.681 227.163C145.364 226.306 146.3 223.381 146.991 221.699C147.933 219.402 148.921 217.137 149.885 214.846C150.492 213.4 148.059 212.388 147.352 213.777ZM149.114 221.01C148.495 221.675 149.002 222.771 149.75 222.875C149.683 223.089 149.606 223.301 149.528 223.511C149.345 223.995 149.149 224.473 148.94 224.945C148.437 226.088 147.48 227.911 148.635 228.979C149.008 229.323 149.657 229.292 149.917 228.813C150.817 227.155 151.666 225.482 152.176 223.653C152.391 222.886 152.619 221.945 152.162 221.221C151.412 220.029 149.996 220.064 149.114 221.01ZM175.602 268.191C175.564 266.617 173.399 266.705 173.219 268.191C172.647 272.897 169.027 277.671 170.484 282.468C170.884 283.781 172.585 283.659 173.032 282.468C173.915 280.119 174.227 277.561 174.802 275.119C175.345 272.804 175.661 270.576 175.602 268.191ZM179.272 281.49C179.689 280.302 179.774 279.025 180.189 277.838C180.573 276.739 181.05 275.902 181.251 274.747C181.336 274.263 181.205 273.657 180.711 273.419L180.271 273.207C179.278 272.729 178.145 273.853 178.77 274.742C178.32 275.866 177.6 276.839 177.144 277.973C176.549 279.452 176.039 280.839 175.274 282.242C174.247 284.124 173.566 285.98 174.757 287.947C174.857 288.112 174.992 288.253 175.154 288.358C175.315 288.463 175.499 288.53 175.69 288.555C175.881 288.58 176.075 288.561 176.258 288.5C176.441 288.439 176.608 288.338 176.746 288.204L176.968 287.989C177.249 287.718 177.235 287.346 177.094 287.016C176.528 285.699 178.82 282.777 179.272 281.49ZM179.487 285.432C179.445 287.024 178.852 288.535 178.889 290.116C178.925 291.571 179.103 293.112 179.718 294.439C180.031 295.111 180.892 294.788 181.115 294.256C181.699 292.865 181.737 291.157 182.137 289.693C182.505 288.344 182.626 286.823 182.595 285.432C182.552 283.432 179.542 283.43 179.487 285.432ZM202.236 334.376C201.755 335.359 201.044 336.124 200.739 337.2C200.387 338.447 200.362 339.712 199.899 340.941C199.157 342.908 197.797 345.081 199.244 347.041C199.764 347.745 200.806 347.869 201.303 347.041C202.199 345.545 202.675 343.524 203.221 341.857C203.481 341.059 203.609 340.271 203.728 339.443C203.932 338.016 204.401 337.208 204.943 335.958C205.725 334.15 203.137 332.535 202.236 334.376ZM205.363 345.778C205.223 348.775 203.965 352.066 205.47 354.85C205.791 355.444 206.685 355.417 207.013 354.85C208.514 352.251 208.468 348.72 208.446 345.778C208.431 343.785 205.456 343.802 205.363 345.778ZM286.25 315.1C282.908 316.462 279.385 316.351 275.858 316.801C272.013 317.291 268.058 318.042 264.296 318.974C260.477 319.92 256.658 320.869 252.834 321.796C250.736 322.305 248.386 322.381 246.778 323.981C246.027 324.728 247.152 325.826 247.932 325.134C249.833 323.45 254.824 323.519 257.264 323.142C261.091 322.551 264.836 321.61 268.655 320.974C272.387 320.352 276.095 319.636 279.848 319.148C282.508 318.803 284.959 318.223 287.095 316.55C287.763 316.027 287.037 314.779 286.25 315.1ZM319.486 308.812C315.884 309.438 312.344 310.919 308.838 311.933C307.958 312.188 308.326 313.536 309.217 313.307C323.193 309.71 338.317 310.559 351.775 304.525C352.319 304.282 352.055 303.335 351.468 303.39C344.361 304.068 337.583 305.979 330.602 307.364C326.922 308.095 323.15 308.175 319.486 308.812ZM348.853 247.589C351.78 254.377 354.436 260.963 359.75 266.258C361.374 267.877 365.776 271.479 367.349 267.954C368.635 265.074 366.285 261.402 365.305 258.807C364.228 255.959 363.133 252.276 360.981 250.057C360.732 249.801 360.251 250.146 360.472 250.45C362.664 253.469 363.047 257.911 364.394 261.354C365 262.904 366.582 265.587 365.507 267.102C364.815 268.078 364.467 267.723 363.445 267.221C362.886 266.947 362.376 266.558 361.879 266.188C355.999 261.802 352.815 254.965 350.137 248.343C348.888 245.255 347.249 242.279 346.169 239.141C345.552 237.348 344.957 235.528 344.465 233.696C344.286 233.028 342.935 229.425 343.206 228.998C343.887 227.923 345.396 230.245 345.787 230.631C347.193 232.022 348.627 233 349.78 234.66C351.697 237.423 352.83 240.716 354.798 243.373C355.364 244.138 356.663 243.407 356.095 242.614C354.599 240.524 353.688 237.845 352.304 235.626C351.05 233.614 349.92 231.971 348.146 230.377C346.309 228.725 344.302 225.018 341.43 226.492C341.161 226.629 340.942 226.991 340.969 227.297C341.271 230.797 342.922 234.625 344.219 237.886C345.554 241.24 347.427 244.283 348.853 247.589ZM329.18 194.178C330.235 195.748 332.247 199.252 334.447 199.402C338.277 199.663 336.928 190.667 334.547 189.393C334.113 189.161 333.386 189.561 333.615 190.109C334.352 191.874 334.623 193.436 334.597 195.354C334.594 195.599 334.65 197.099 334.358 197.222C334.037 197.358 332.398 195.213 332.219 194.991C329.458 191.561 327.518 187.505 325.759 183.496C325.27 182.38 323.652 183.346 324.126 184.45C325.568 187.807 327.136 191.138 329.18 194.178Z" fill="black"/>
</svg>
